<svg width="41" height="26" viewBox="0 0 41 26" fill="none" xmlns="http://www.w3.org/2000/svg">
<path d="M0.5 23.625V14.25C0.5 13.3472 0.717014 12.4965 1.15104 11.6979C1.58507 10.8993 2.20139 10.309 3 9.92708V5.5C3 4.11111 3.48611 2.93056 4.45833 1.95833C5.43056 0.986111 6.61111 0.5 8 0.5H17.375C17.9708 0.5 18.5277 0.595486 19.0458 0.786458C19.5639 0.977431 20.0486 1.26389 20.5 1.64583C20.9514 1.26389 21.4361 0.977431 21.9542 0.786458C22.4723 0.595486 23.0292 0.5 23.625 0.5H33C34.3889 0.5 35.5694 0.986111 36.5417 1.95833C37.5139 2.93056 38 4.11111 38 5.5V9.92708C38.7986 10.309 39.4149 10.8993 39.849 11.6979C40.283 12.4965 40.5 13.3472 40.5 14.25V23.625C40.5 24.1562 40.3214 24.6016 39.9641 24.9609C39.6068 25.3203 39.1641 25.5 38.636 25.5C38.1078 25.5 37.6615 25.3203 37.2969 24.9609C36.9323 24.6016 36.75 24.1562 36.75 23.625V21.75H4.25V23.614C4.25 24.1422 4.07137 24.5885 3.71411 24.9531C3.35682 25.3177 2.91411 25.5 2.38599 25.5C1.85783 25.5 1.41146 25.3203 1.04688 24.9609C0.682292 24.6016 0.5 24.1562 0.5 23.625ZM22.375 9.25H34.25V5.5C34.25 5.14583 34.1302 4.84896 33.8906 4.60938C33.651 4.36979 33.3542 4.25 33 4.25H23.625C23.2708 4.25 22.974 4.36979 22.7344 4.60938C22.4948 4.84896 22.375 5.14583 22.375 5.5V9.25ZM6.75 9.25H18.625V5.5C18.625 5.14583 18.5052 4.84896 18.2656 4.60938C18.026 4.36979 17.7292 4.25 17.375 4.25H8C7.64583 4.25 7.34896 4.36979 7.10938 4.60938C6.86979 4.84896 6.75 5.14583 6.75 5.5V9.25ZM4.25 18H36.75V14.25C36.75 13.8958 36.6302 13.599 36.3906 13.3594C36.151 13.1198 35.8542 13 35.5 13H5.5C5.14583 13 4.84896 13.1198 4.60938 13.3594C4.36979 13.599 4.25 13.8958 4.25 14.25V18Z" fill="black"/>
</svg>
