<svg width="62" height="36" viewBox="0 0 62 36" fill="none" xmlns="http://www.w3.org/2000/svg">
<path d="M30.9871 0.916718C26.3742 0.916718 22.6189 4.70632 22.6189 9.33883C22.6189 12.2694 24.1238 14.857 26.3962 16.3652C23.6516 17.283 21.2767 18.9981 19.5349 21.242C18.5718 20.5012 17.4958 19.9055 16.3358 19.4786C18.0949 18.1727 19.2444 16.0749 19.2444 13.7171C19.2444 9.78818 16.0668 6.57188 12.1617 6.57188C8.25655 6.57188 5.07895 9.78818 5.07895 13.7171C5.07895 16.0762 6.22943 18.175 7.98999 19.4809C3.32891 21.2009 1.52588e-05 25.7041 1.52588e-05 31.0038V34.7267C0.000492332 35.0105 0.114014 35.2823 0.315296 35.4822C0.516578 35.6825 0.788938 35.7941 1.07274 35.7932H17.4058C17.4454 35.7975 17.485 35.7999 17.5246 35.7994H44.4505C44.4901 35.7999 44.5301 35.7975 44.5692 35.7932H60.9035C61.4907 35.7908 61.9663 35.3143 61.9677 34.7267V31.0038C61.9677 25.7041 58.6445 21.2009 53.9859 19.4804C55.7464 18.175 56.8969 16.0757 56.8969 13.7166C56.8969 9.78769 53.7193 6.57138 49.8142 6.57138C45.9092 6.57138 42.7315 9.78769 42.7315 13.7166C42.7315 16.0744 43.8815 18.1726 45.6406 19.4781C44.4782 19.906 43.4016 20.5036 42.4372 21.2462C40.6962 19.0011 38.3246 17.2835 35.5802 16.3652C37.852 14.857 39.3574 12.2694 39.3574 9.33883C39.3574 4.70632 35.6002 0.916718 30.9873 0.916718H30.9871ZM30.9871 3.0536C34.4371 3.0536 37.2183 5.85352 37.2183 9.33883C37.2183 12.7969 34.4804 15.5696 31.0686 15.614C31.0415 15.614 31.0147 15.6102 30.9871 15.6102C30.9594 15.6102 30.9332 15.614 30.9055 15.614C27.4937 15.5702 24.7577 12.797 24.7577 9.33883C24.7577 5.85303 27.5366 3.0536 30.9866 3.0536H30.9871ZM12.1618 8.70863C14.8992 8.70863 17.1076 10.9304 17.1076 13.717C17.1076 16.4849 14.9278 18.6971 12.2161 18.7272C12.198 18.7272 12.1803 18.7253 12.1617 18.7253C12.1436 18.7253 12.126 18.7272 12.1074 18.7272C9.39573 18.6971 7.21587 16.4844 7.21587 13.717C7.21587 10.9305 9.4243 8.70863 12.1617 8.70863H12.1618ZM49.8136 8.70863C52.551 8.70863 54.7594 10.9304 54.7594 13.717C54.7594 16.4849 52.5796 18.6971 49.8679 18.7272C49.8498 18.7272 49.8321 18.7253 49.8135 18.7253C49.7954 18.7253 49.7778 18.7272 49.7592 18.7272C47.0475 18.6971 44.8677 16.4844 44.8677 13.717C44.8677 10.9305 47.0761 8.70863 49.8135 8.70863H49.8136ZM30.9053 17.7508C30.9324 17.7513 30.9592 17.7546 30.9868 17.7546C31.014 17.7546 31.0407 17.7508 31.0684 17.7508C37.9107 17.7947 43.3866 23.3177 43.3866 30.2314L43.3861 33.6619H18.5885V30.2314C18.5885 23.3171 24.0629 17.7948 30.9043 17.7508H30.9053ZM12.08 20.8665C12.1072 20.867 12.1339 20.8703 12.1615 20.8703C12.1892 20.8703 12.2154 20.8665 12.2431 20.8665C14.5574 20.8851 16.6695 21.6831 18.3513 23.0181C17.1478 25.1475 16.4519 27.6052 16.4519 30.232V33.6543H2.13603V31.0037C2.13603 25.3848 6.55387 20.9103 12.0797 20.866L12.08 20.8665ZM49.7318 20.8665C49.7594 20.867 49.7857 20.8703 49.8133 20.8703C49.841 20.8703 49.8672 20.8665 49.8949 20.8665C55.4207 20.9104 59.8386 25.3854 59.8386 31.0042V33.6543H45.5154L45.5149 30.232C45.5149 27.6067 44.8209 25.1508 43.6198 23.0219C45.3021 21.685 47.4156 20.8851 49.7319 20.8665H49.7318Z" fill="#103E13"/>
</svg>
