<svg width="58" height="55" viewBox="0 0 58 55" fill="none" xmlns="http://www.w3.org/2000/svg">
<path d="M36.1351 26.8708C35.7087 26.8708 35.3128 26.7535 34.9611 26.565V26.57C34.9611 27.2408 34.7003 27.8709 34.2272 28.3427C33.7541 28.8158 33.1246 29.0766 32.4545 29.0766C32.0219 29.0766 31.6209 28.9564 31.2654 28.7628C31.2296 29.3766 30.9843 29.9502 30.5466 30.3883C30.0735 30.8614 29.4439 31.1222 28.7734 31.1222C27.4413 31.1222 26.3594 30.075 26.2815 28.7624C25.8693 28.9852 25.4033 29.102 24.9226 29.0712C23.6121 28.9852 22.5858 27.8529 22.5858 26.4928V15.2185L21.302 17.4426C20.8131 18.2933 19.8978 18.8215 18.9123 18.8215C18.4321 18.8215 17.9577 18.6955 17.5376 18.4547C17.0144 18.1514 16.6402 17.6646 16.4846 17.0821C16.3281 16.4993 16.4091 15.8897 16.7115 15.3673C16.712 15.3673 20.9119 8.09418 21.1682 7.64742C21.1986 7.58024 21.2854 7.38541 21.3593 7.21937C21.4298 7.06083 21.4903 6.89812 21.5482 6.73457C22.8148 3.15876 25.951 0.937548 29.7334 0.937548C34.6451 0.937548 38.6411 5.2706 38.6411 10.5967L38.6415 24.3638C38.6415 25.0338 38.3812 25.6634 37.9085 26.137C37.4354 26.6101 36.8058 26.8708 36.135 26.8708L36.1351 26.8708ZM29.7335 2.26947C26.4834 2.26947 23.893 4.10522 22.8037 7.18001C22.734 7.37526 22.6614 7.57051 22.5767 7.76076C22.331 8.31189 22.331 8.31189 22.2617 8.39115L22.2525 8.38322C21.9096 9.03031 20.8908 10.7947 17.8648 16.0339C17.7405 16.2488 17.7075 16.4983 17.7709 16.7369C17.8352 16.9756 17.9891 17.1767 18.2023 17.2997C18.864 17.6798 19.7702 17.4345 20.1473 16.7774L22.6752 12.4009C22.8262 12.1401 23.1316 12.012 23.4245 12.0913C23.7157 12.1693 23.918 12.4334 23.918 12.7346V26.4932C23.918 27.1423 24.4078 27.7026 25.0099 27.7423C25.357 27.7606 25.6808 27.6442 25.924 27.4014C26.1451 27.1803 26.2669 26.8857 26.2669 26.5707V17.5725C26.2669 17.2045 26.5652 16.9062 26.9332 16.9062C27.3012 16.9062 27.5995 17.2041 27.5995 17.5725L27.5991 28.6161C27.5991 29.2636 28.126 29.7905 28.7735 29.7905C29.0881 29.7905 29.3834 29.6687 29.605 29.4475C29.8261 29.226 29.9479 28.9306 29.9479 28.616V17.5725C29.9479 17.2045 30.2458 16.9062 30.6142 16.9062C30.9822 16.9062 31.2805 17.2041 31.2805 17.5725L31.2801 26.4672V26.5707C31.2801 27.2178 31.807 27.7447 32.4549 27.7447C32.7691 27.7447 33.0636 27.6225 33.2864 27.4005C33.5075 27.1798 33.6293 26.8853 33.6293 26.5703V17.572C33.6293 17.204 33.9272 16.9057 34.2956 16.9057C34.6636 16.9057 34.9619 17.2036 34.9619 17.572L34.9611 24.3641C34.9611 25.012 35.488 25.539 36.1351 25.539C36.45 25.539 36.7446 25.4167 36.9657 25.196C37.1877 24.9741 37.3091 24.6787 37.3091 24.3641L37.3095 10.597C37.3095 6.00573 33.911 2.2696 29.7334 2.2696L29.7335 2.26947Z" fill="#103E13"/>
<path d="M9.9577 36.4394L19.626 30.6394C20.7916 29.9393 22.2915 30.2368 23.0391 31.3169C23.312 31.7103 23.4513 32.1688 23.473 32.6357C23.8335 32.4476 24.2256 32.3453 24.6249 32.3453C24.8293 32.3453 25.0346 32.3708 25.2373 32.4213C25.8869 32.5836 26.4343 32.9895 26.7785 33.5635C27.1231 34.1385 27.2237 34.8122 27.0614 35.461C26.9116 36.0614 26.5466 36.5667 26.0388 36.9134C26.3939 37.1228 26.7001 37.4086 26.9179 37.7724C27.2625 38.3473 27.363 39.0207 27.2011 39.6703C27.0389 40.3191 26.6329 40.8664 26.058 41.2115L26.0547 41.2136C26.4035 41.4226 26.7043 41.7055 26.9196 42.0638C27.2646 42.6387 27.3651 43.3125 27.2028 43.9621C27.0401 44.6112 26.6342 45.1586 26.0601 45.5033L14.255 52.5853C12.0518 53.9066 9.50471 54.3627 7.08409 53.8683C4.6418 53.3693 2.61914 51.9655 1.38928 49.9152C-0.557011 46.6715 -0.265329 42.839 2.14902 39.914C2.25958 39.7805 2.36847 39.6445 2.46735 39.5034C2.57206 39.3545 2.69431 39.1793 2.73602 39.1192C2.98592 38.6728 7.06374 31.3258 7.06331 31.3266C7.47509 30.5836 8.24691 30.163 9.04293 30.1634C9.41424 30.1634 9.79098 30.2548 10.1385 30.4475C10.5582 30.682 10.9108 31.0237 11.1573 31.4355C11.6642 32.2803 11.6822 33.3376 11.2049 34.1932L9.9577 36.4394ZM10.0157 32.1204C9.88636 31.9047 9.70863 31.7328 9.49126 31.611C9.04194 31.3624 8.47621 31.5242 8.22884 31.9719C5.31094 37.2287 4.31627 39.0201 3.93242 39.6576L3.94118 39.6597C3.90905 39.7665 3.90905 39.7665 3.55777 40.2684C3.43845 40.4382 3.3087 40.6014 3.17645 40.762C1.10038 43.2773 0.859326 46.4427 2.53103 49.23C3.56653 50.9563 5.27793 52.14 7.35015 52.563C9.4449 52.989 11.6528 52.5926 13.569 51.4428L25.3752 44.3604C25.6447 44.199 25.835 43.9424 25.9109 43.6383C25.9868 43.3345 25.9397 43.0187 25.7778 42.7492C25.4449 42.1943 24.7219 42.012 24.167 42.3462L18.3428 45.8403C18.0274 46.0297 17.6177 45.9279 17.4287 45.6121C17.2393 45.2967 17.3415 44.8874 17.6569 44.698L23.4815 41.2039L25.3731 40.0691C25.6426 39.9072 25.8333 39.6506 25.9092 39.3473C25.9852 39.0432 25.938 38.7269 25.7761 38.4578C25.4428 37.9025 24.7198 37.7219 24.1653 38.0548L16.4491 42.6837C16.1329 42.8735 15.7244 42.7709 15.535 42.4555C15.3456 42.1401 15.4483 41.7308 15.7632 41.5414L25.2334 35.8604C25.5029 35.6985 25.6931 35.4423 25.7691 35.1382C25.845 34.8345 25.7978 34.5187 25.6364 34.2491C25.4749 33.9801 25.2183 33.7898 24.9142 33.7139C24.6084 33.6379 24.2938 33.6851 24.0252 33.8461L22.2721 34.8979C22.2716 34.8979 22.2716 34.8983 22.2712 34.8983H22.2708L14.5551 39.5272C14.2388 39.7175 13.8299 39.6148 13.641 39.299C13.4515 38.9836 13.5542 38.5743 13.8692 38.3849L21.5854 33.756C21.8549 33.5941 22.0455 33.3376 22.1215 33.0343C22.2049 32.7013 22.1415 32.3609 21.9437 32.0755C21.6008 31.5795 20.8673 31.4476 20.3112 31.7818L8.51361 38.8593C8.25536 39.0137 7.92452 38.9761 7.70798 38.7671C7.49104 38.5577 7.44222 38.2285 7.58825 37.9652L10.0414 33.5454C10.2876 33.1035 10.278 32.5578 10.0156 32.1206L10.0157 32.1204Z" fill="#103E13"/>
<path d="M56.157 49.9148C54.9275 51.9653 52.9054 53.3689 50.4626 53.8678C48.0416 54.3614 45.4954 53.9062 43.2917 52.5849L31.4855 45.5025C30.911 45.1579 30.5047 44.6105 30.342 43.9605C30.1805 43.3117 30.2815 42.6379 30.6257 42.0638C30.8405 41.705 31.1417 41.4222 31.491 41.2131L31.4876 41.2111C30.9131 40.8664 30.5068 40.3191 30.3449 39.6699C30.1822 39.0207 30.2832 38.3465 30.6278 37.7716C30.8497 37.4024 31.1539 37.1137 31.501 36.9089C30.997 36.5622 30.634 36.0586 30.4847 35.4611C30.322 34.8115 30.4229 34.1377 30.7675 33.5636C31.1117 32.9891 31.6595 32.5832 32.3087 32.4209C32.5115 32.37 32.7172 32.345 32.9208 32.345C33.3205 32.3454 33.7126 32.4468 34.0731 32.6354C34.0952 32.1685 34.2341 31.71 34.507 31.3166C35.255 30.2373 36.7536 29.9386 37.921 30.639L47.5889 36.4382L46.3427 34.1936C45.8646 33.3366 45.8821 32.2794 46.389 31.4342C46.636 31.0228 46.989 30.6811 47.4108 30.4446C47.7575 30.2527 48.1329 30.1617 48.5034 30.1617C49.299 30.1621 50.0717 30.5818 50.483 31.3249C51.9165 33.9079 54.6217 38.7791 54.8119 39.1192C54.8523 39.178 54.9746 39.3532 55.0793 39.5022C55.179 39.6436 55.2867 39.7788 55.3981 39.9131C57.812 42.8394 58.1032 46.6714 56.157 49.9148L56.157 49.9148ZM54.3702 40.7622C54.2375 40.6016 54.1074 40.4376 53.9889 40.2686C53.6284 39.7571 53.6192 39.7438 53.5921 39.6099C53.1707 38.9127 52.1428 37.0621 49.317 31.9712C49.0692 31.5244 48.506 31.3613 48.0575 31.6091C47.8368 31.7326 47.6595 31.9049 47.5302 32.1206C47.2682 32.5574 47.2581 33.1031 47.5055 33.5462L49.9579 37.9648C50.1043 38.2285 50.0555 38.5573 49.839 38.7667C49.6229 38.9765 49.2924 39.0133 49.0329 38.8589L37.2353 31.7814C36.6792 31.448 35.9462 31.5786 35.6024 32.0751C35.4046 32.3605 35.3416 32.7009 35.4242 33.0334C35.5002 33.3372 35.6908 33.5933 35.9608 33.7552C35.9616 33.7556 35.962 33.7564 35.9628 33.7569L43.6766 38.3845C43.992 38.5739 44.0942 38.9827 43.9048 39.2986C43.7154 39.6136 43.3069 39.7166 42.9907 39.5268L33.5206 33.8457C33.2519 33.6847 32.9356 33.6371 32.6319 33.7135C32.3274 33.7894 32.0712 33.9797 31.9097 34.2496C31.7479 34.5187 31.7011 34.8345 31.7762 35.1382C31.8522 35.442 32.0428 35.6985 32.3123 35.8604L34.1551 36.9656L41.782 41.5416C42.0974 41.731 42.1997 42.1398 42.0102 42.4557C41.8208 42.7706 41.4124 42.8733 41.0962 42.6839L33.3808 38.055C32.8259 37.7212 32.1033 37.9023 31.7696 38.458C31.6077 38.7275 31.561 39.0433 31.6361 39.347C31.712 39.6508 31.9027 39.9069 32.1726 40.0692L34.0642 41.204L39.8879 44.6981C40.2033 44.8875 40.3055 45.2964 40.1161 45.6122C39.9267 45.9272 39.5183 46.0307 39.202 45.8404L33.3783 42.3463C33.1096 42.1853 32.7946 42.1377 32.4892 42.2141C32.1855 42.29 31.9285 42.4802 31.7671 42.7493C31.6056 43.0188 31.5585 43.3351 31.6336 43.6384C31.7095 43.9421 31.9002 44.1983 32.1701 44.3606L43.9762 51.443C45.8921 52.5924 48.1016 52.9904 50.1951 52.5632C52.2669 52.1401 53.9784 50.9565 55.0138 49.2301C56.6872 46.4423 56.4465 43.2766 54.3709 40.7621L54.3702 40.7622Z" fill="#103E13"/>
</svg>
