<svg width="41" height="40" viewBox="0 0 41 40" fill="none" xmlns="http://www.w3.org/2000/svg">
<path d="M20.5 40C17.7569 40 15.1701 39.4792 12.7396 38.4375C10.309 37.3958 8.18229 35.9635 6.35938 34.1406C4.53646 32.3177 3.10417 30.191 2.0625 27.7604C1.02083 25.3299 0.5 22.7431 0.5 20C0.5 17.2222 1.02083 14.6267 2.0625 12.2135C3.10417 9.80035 4.53646 7.68229 6.35938 5.85938C8.18229 4.03646 10.309 2.60417 12.7396 1.5625C15.1701 0.520833 17.7569 0 20.5 0C23.2778 0 25.8733 0.520833 28.2865 1.5625C30.6997 2.60417 32.8177 4.03646 34.6406 5.85938C36.4635 7.68229 37.8958 9.80035 38.9375 12.2135C39.9792 14.6267 40.5 17.2222 40.5 20C40.5 22.7431 39.9792 25.3299 38.9375 27.7604C37.8958 30.191 36.4635 32.3177 34.6406 34.1406C32.8177 35.9635 30.6997 37.3958 28.2865 38.4375C25.8733 39.4792 23.2778 40 20.5 40ZM20.5 36.0938C21.0903 35.5035 21.6806 34.401 22.2708 32.7865C22.8611 31.1719 23.3125 29.4097 23.625 27.5H17.375C17.6875 29.4097 18.1389 31.1719 18.7292 32.7865C19.3194 34.401 19.9097 35.5035 20.5 36.0938ZM15.7604 35.5729C15.2743 34.5313 14.849 33.3333 14.4844 31.9792C14.1198 30.625 13.816 29.1319 13.5729 27.5H6.125C7.13194 29.4792 8.46875 31.1719 10.1354 32.5781C11.8021 33.9844 13.6771 34.9826 15.7604 35.5729ZM25.2396 35.5729C27.3229 34.9826 29.1979 33.9844 30.8646 32.5781C32.5313 31.1719 33.8681 29.4792 34.875 27.5H27.4271C27.184 29.1319 26.8802 30.625 26.5156 31.9792C26.151 33.3333 25.7257 34.5313 25.2396 35.5729ZM4.71875 23.75H13.1042C13.0347 23.0903 12.9913 22.4392 12.974 21.7969C12.9566 21.1545 12.9479 20.5208 12.9479 19.8958C12.9479 19.2708 12.9566 18.6545 12.974 18.0469C12.9913 17.4392 13.0347 16.8403 13.1042 16.25H4.71875C4.54514 16.9097 4.42361 17.5434 4.35417 18.151C4.28472 18.7587 4.25 19.375 4.25 20C4.25 20.625 4.28472 21.2413 4.35417 21.849C4.42361 22.4566 4.54514 23.0903 4.71875 23.75ZM16.9062 23.75H24.0938C24.1632 23.0556 24.2066 22.4045 24.224 21.7969C24.2413 21.1892 24.25 20.5903 24.25 20C24.25 19.4097 24.2413 18.8021 24.224 18.1771C24.2066 17.5521 24.1632 16.9097 24.0938 16.25H16.9062C16.8368 16.9097 16.7934 17.5521 16.776 18.1771C16.7587 18.8021 16.75 19.4097 16.75 20C16.75 20.5903 16.7587 21.1979 16.776 21.8229C16.7934 22.4479 16.8368 23.0903 16.9062 23.75ZM27.8958 23.75H36.2812C36.4549 23.0903 36.5764 22.4566 36.6458 21.849C36.7153 21.2413 36.75 20.625 36.75 20C36.75 19.375 36.7153 18.75 36.6458 18.125C36.5764 17.5 36.4549 16.875 36.2812 16.25H27.8958C27.9653 16.9097 28.0087 17.5608 28.026 18.2031C28.0434 18.8455 28.0521 19.4792 28.0521 20.1042C28.0521 20.7292 28.0434 21.3455 28.026 21.9531C28.0087 22.5608 27.9653 23.1597 27.8958 23.75ZM27.4271 12.5H34.875C33.8681 10.5208 32.5313 8.82812 30.8646 7.42188C29.1979 6.01562 27.3229 5.01736 25.2396 4.42708C25.7257 5.46875 26.151 6.66667 26.5156 8.02083C26.8802 9.375 27.184 10.8681 27.4271 12.5ZM17.375 12.5H23.625C23.3125 10.5903 22.8611 8.82813 22.2708 7.21354C21.6806 5.59896 21.0903 4.49653 20.5 3.90625C19.9097 4.49653 19.3194 5.59896 18.7292 7.21354C18.1389 8.82813 17.6875 10.5903 17.375 12.5ZM6.125 12.5H13.5729C13.816 10.8681 14.1198 9.375 14.4844 8.02083C14.849 6.66667 15.2743 5.46875 15.7604 4.42708C13.6771 5.01736 11.8021 6.01562 10.1354 7.42188C8.46875 8.82812 7.13194 10.5208 6.125 12.5Z" fill="black"/>
</svg>
