<svg width="41" height="43" viewBox="0 0 41 43" fill="none" xmlns="http://www.w3.org/2000/svg">
<path d="M5.94775 22.4792L0.895671 17.4271C0.513726 17.0578 0.322754 16.6269 0.322754 16.1345C0.322754 15.642 0.513726 15.2049 0.895671 14.8229L5.94775 9.77083C6.31706 9.38889 6.74793 9.19792 7.24036 9.19792C7.73279 9.19792 8.16998 9.38889 8.55192 9.77083L13.604 14.8229C13.9859 15.1922 14.1769 15.6231 14.1769 16.1155C14.1769 16.608 13.9859 17.0451 13.604 17.4271L8.55192 22.4792C8.18262 22.8611 7.75175 23.0521 7.25932 23.0521C6.76689 23.0521 6.3297 22.8611 5.94775 22.4792ZM16.6248 43C16.0936 43 15.6483 42.8203 15.2889 42.4609C14.9295 42.1016 14.7498 41.6562 14.7498 41.125V32.7396C13.0832 32.6354 11.4425 32.4358 9.82796 32.1406C8.21338 31.8455 6.59012 31.5069 4.95817 31.125C4.43734 30.9861 4.02935 30.6823 3.73421 30.2135C3.43907 29.7448 3.37831 29.2587 3.55192 28.7552C3.72553 28.2517 4.04671 27.8872 4.51546 27.6615C4.98421 27.4358 5.50388 27.3924 6.07447 27.5312C8.52472 28.1215 10.997 28.5382 13.4915 28.7812C15.9859 29.0243 18.4887 29.1458 20.9998 29.1458C23.5226 29.1458 26.037 29.0243 28.543 28.7812C31.0489 28.5382 33.527 28.1215 35.9773 27.5312C36.5479 27.3924 37.0675 27.4358 37.5363 27.6615C38.005 27.8872 38.3262 28.2517 38.4998 28.7552C38.6735 29.2587 38.6127 29.7448 38.3175 30.2135C38.0224 30.6823 37.6144 30.9861 37.0936 31.125C35.4616 31.5069 33.8297 31.8455 32.1978 32.1406C30.5658 32.4358 28.9165 32.6354 27.2498 32.7396V41.125C27.2498 41.6562 27.0702 42.1016 26.7108 42.4609C26.3514 42.8203 25.9061 43 25.3748 43H16.6248ZM7.24984 18.4688L9.59359 16.125L7.24984 13.7812L4.90609 16.125L7.24984 18.4688ZM20.9998 13C19.2637 13 17.788 12.3924 16.5728 11.1771C15.3575 9.96181 14.7498 8.48611 14.7498 6.75C14.7498 5.01389 15.3575 3.53819 16.5728 2.32292C17.788 1.10764 19.2637 0.5 20.9998 0.5C22.736 0.5 24.2116 1.10764 25.4269 2.32292C26.6422 3.53819 27.2498 5.01389 27.2498 6.75C27.2498 8.48611 26.6422 9.96181 25.4269 11.1771C24.2116 12.3924 22.736 13 20.9998 13ZM20.9888 26.75C19.9545 26.75 19.0728 26.3817 18.3436 25.6452C17.6144 24.9086 17.2498 24.0232 17.2498 22.989C17.2498 21.9547 17.6181 21.0729 18.3546 20.3438C19.0912 19.6146 19.9766 19.25 21.0109 19.25C22.0452 19.25 22.9269 19.6183 23.6561 20.3548C24.3853 21.0914 24.7498 21.9768 24.7498 23.011C24.7498 24.0453 24.3816 24.9271 23.645 25.6562C22.9085 26.3854 22.0231 26.75 20.9888 26.75ZM20.9998 9.25C21.7082 9.25 22.3019 9.01042 22.7811 8.53125C23.2603 8.05208 23.4998 7.45833 23.4998 6.75C23.4998 6.04167 23.2603 5.44792 22.7811 4.96875C22.3019 4.48958 21.7082 4.25 20.9998 4.25C20.2915 4.25 19.6978 4.48958 19.2186 4.96875C18.7394 5.44792 18.4998 6.04167 18.4998 6.75C18.4998 7.45833 18.7394 8.05208 19.2186 8.53125C19.6978 9.01042 20.2915 9.25 20.9998 9.25ZM30.9998 20.8125L28.8123 17.0625C28.6387 16.7812 28.5519 16.4688 28.5519 16.125C28.5519 15.7812 28.6387 15.4688 28.8123 15.1875L30.9998 11.4375C31.1735 11.1597 31.4028 10.934 31.6878 10.7604C31.9729 10.5868 32.2896 10.5 32.638 10.5H36.9137C37.2621 10.5 37.5789 10.5868 37.864 10.7604C38.149 10.934 38.3783 11.1597 38.5519 11.4375L40.7394 15.1875C40.913 15.4688 40.9998 15.7812 40.9998 16.125C40.9998 16.4688 40.913 16.7812 40.7394 17.0625L38.5519 20.8125C38.3783 21.0903 38.149 21.316 37.864 21.4896C37.5789 21.6632 37.2621 21.75 36.9137 21.75H32.638C32.2896 21.75 31.9729 21.6632 31.6878 21.4896C31.4028 21.316 31.1735 21.0903 30.9998 20.8125ZM33.6213 18H35.8436L36.9894 16.125L35.8783 14.25H33.6561L32.5103 16.125L33.6213 18Z" fill="black"/>
</svg>
