<svg width="44" height="36" viewBox="0 0 44 36" fill="none" xmlns="http://www.w3.org/2000/svg">
<path d="M8.7501 29.5625C8.15982 29.2847 7.69107 28.8333 7.34385 28.2083C6.99663 27.5833 6.82302 26.9236 6.82302 26.2291V16.125L1.40635 13.4166C1.05913 13.243 0.798713 13.0107 0.625102 12.7198C0.451491 12.4288 0.364685 12.1056 0.364685 11.75C0.364685 11.3944 0.451491 11.0711 0.625102 10.7801C0.798713 10.4892 1.05913 10.2569 1.40635 10.0833L18.9064 1.33329C19.1695 1.1944 19.44 1.09024 19.7178 1.02079C19.9955 0.951348 20.2806 0.916626 20.573 0.916626C20.8654 0.916626 21.1505 0.951348 21.4283 1.02079C21.7061 1.09024 21.9765 1.1944 22.2397 1.33329L42.0834 11.2291C42.3959 11.4027 42.639 11.6325 42.8126 11.9183C42.9862 12.2042 43.073 12.5127 43.073 12.8437V26.125C43.073 26.6111 42.8821 27.0451 42.5001 27.427C42.1182 27.809 41.6755 28 41.172 28C40.6685 28 40.2345 27.809 39.8699 27.427C39.5053 27.0451 39.323 26.6111 39.323 26.125V13.625L34.323 16.125V26.2291C34.323 26.9236 34.1581 27.5746 33.8282 28.1823C33.4984 28.7899 33.0209 29.25 32.3959 29.5625L22.2397 34.6666C21.9619 34.8055 21.6877 34.901 21.417 34.9531C21.1464 35.0052 20.8686 35.0312 20.5837 35.0312C20.2988 35.0312 20.0175 35.0052 19.7397 34.9531C19.4619 34.901 19.1841 34.8055 18.9064 34.6666L8.7501 29.5625ZM20.573 18.7812L34.6876 11.75L20.573 4.71871L6.45844 11.75L20.573 18.7812ZM20.573 31.2291L30.573 26.2812V18.052L22.3959 22.1145C22.0834 22.2882 21.7767 22.4097 21.4758 22.4791C21.1749 22.5486 20.874 22.5833 20.573 22.5833C20.2258 22.5833 19.9046 22.5486 19.6095 22.4791C19.3143 22.4097 19.0279 22.2882 18.7501 22.1145L10.573 18.052V26.2812L20.573 31.2291Z" fill="black"/>
</svg>
