<svg width="44" height="33" viewBox="0 0 44 33" fill="none" xmlns="http://www.w3.org/2000/svg">
<path d="M4.14583 7.89583C3.3125 6.92361 2.71281 6.01693 2.34677 5.17578C1.98076 4.33467 1.78184 3.41844 1.75 2.42708C1.75 1.88108 1.95179 1.4234 2.35536 1.05406C2.75894 0.684688 3.23516 0.5 3.78401 0.5C4.26828 0.5 4.67535 0.699653 5.00521 1.09896C5.33507 1.49826 5.5 1.94097 5.5 2.42708C5.53472 3.01736 5.65009 3.55299 5.84609 4.03396C6.0421 4.51493 6.37813 5.03833 6.85417 5.60417C7.72222 6.61111 8.3559 7.6441 8.75521 8.70312C9.15452 9.76215 9.31945 10.9514 9.25 12.2708C9.21913 12.8316 9.00309 13.3017 8.60188 13.681C8.20063 14.0603 7.71438 14.25 7.14313 14.25C6.67271 14.25 6.27257 14.0503 5.94271 13.651C5.61285 13.2517 5.46528 12.7917 5.5 12.2708C5.56945 11.2639 5.49132 10.4306 5.26563 9.77083C5.03993 9.11111 4.66667 8.48611 4.14583 7.89583ZM11.6979 7.89583C10.8646 6.92361 10.2646 6.01693 9.89792 5.17578C9.53125 4.33467 9.33264 3.41844 9.30208 2.42708C9.30208 1.88108 9.50387 1.4234 9.90745 1.05406C10.311 0.684688 10.7872 0.5 11.3361 0.5C11.8204 0.5 12.2274 0.699653 12.5573 1.09896C12.8872 1.49826 13.0521 1.94097 13.0521 2.42708C13.0868 3.01736 13.2022 3.55299 13.3982 4.03396C13.5942 4.51493 13.9302 5.03833 14.4063 5.60417C15.2743 6.61111 15.8993 7.62674 16.2813 8.65104C16.6632 9.67535 16.8368 10.8472 16.8021 12.1667C16.7725 12.7569 16.5655 13.2517 16.1809 13.651C15.7964 14.0503 15.309 14.25 14.7188 14.25C14.2326 14.25 13.816 14.0503 13.4688 13.651C13.1215 13.2517 12.9653 12.7917 13 12.2708C13.0694 11.2986 13 10.474 12.7917 9.79688C12.5833 9.11979 12.2188 8.48611 11.6979 7.89583ZM19.1458 7.89583C18.3125 6.92361 17.7135 6.02083 17.349 5.1875C16.9844 4.35417 16.8021 3.43403 16.8021 2.42708C16.8021 1.88108 17.0039 1.4234 17.4074 1.05406C17.811 0.684688 18.2872 0.5 18.8361 0.5C19.3204 0.5 19.7188 0.699653 20.0313 1.09896C20.3438 1.49826 20.5 1.93712 20.5 2.41552C20.5 3.01351 20.6019 3.55299 20.8058 4.03396C21.0096 4.51493 21.3591 5.03833 21.8542 5.60417C22.7222 6.61111 23.3559 7.6441 23.7552 8.70312C24.1545 9.76215 24.3368 10.9514 24.3021 12.2708C24.2712 12.8316 24.0552 13.3017 23.654 13.681C23.2527 14.0603 22.7569 14.25 22.1667 14.25C21.6806 14.25 21.2726 14.0503 20.9427 13.651C20.6128 13.2517 20.4653 12.7917 20.5 12.2708C20.5694 11.2986 20.4913 10.474 20.2656 9.79688C20.0399 9.11979 19.6667 8.48611 19.1458 7.89583ZM6.125 33C4.5625 33 3.23438 32.4537 2.14063 31.3612C1.04688 30.2687 0.5 28.9421 0.5 27.3813V19.8897C0.5 19.3591 0.679687 18.9115 1.03906 18.5469C1.39844 18.1823 1.84375 18 2.375 18H28.2083C28.4861 17.0625 28.9635 16.2552 29.6406 15.5781C30.3177 14.901 31.125 14.4236 32.0625 14.1458L40.6563 11.6979C41.1393 11.5243 41.6073 11.5764 42.0603 11.8542C42.5131 12.1319 42.8264 12.5128 43 12.9966C43.1736 13.4805 43.1215 13.9493 42.8438 14.4029C42.566 14.8565 42.184 15.1701 41.6979 15.3438L33.1563 17.7917C32.7743 17.8958 32.4444 18.1141 32.1667 18.4466C31.8889 18.779 31.75 19.1509 31.75 19.5625V27.375C31.75 28.9375 31.2031 30.2656 30.1094 31.3594C29.0156 32.4531 27.6875 33 26.125 33H6.125ZM6.125 29.25H26.125C26.6563 29.25 27.1016 29.0703 27.4609 28.7109C27.8203 28.3516 28 27.9062 28 27.375V21.75H4.25V27.3613C4.25 27.8913 4.42969 28.3385 4.78906 28.7031C5.14844 29.0677 5.59375 29.25 6.125 29.25Z" fill="black"/>
</svg>
