<svg width="22" height="22" viewBox="0 0 22 22" fill="none" xmlns="http://www.w3.org/2000/svg">
<path d="M17.89 2.69004C17.1637 2.27144 16.3198 2.1034 15.4885 2.21182C14.6572 2.32025 13.8847 2.69913 13.29 3.29004L10.59 6.00004L16 11.41L18.71 8.70004C19.3009 8.10537 19.6798 7.33284 19.7883 6.50155C19.8967 5.67026 19.7286 4.82638 19.31 4.10004L21.71 1.70004L20.29 0.290039L17.89 2.69004ZM1.71004 21.71L4.11004 19.31C4.83494 19.7337 5.68 19.9046 6.51256 19.796C7.34512 19.6874 8.11806 19.3055 8.71004 18.71L11.41 16L10.41 15L12.7 12.71L11.29 11.3L9.00004 13.59L8.41004 13L10.7 10.71L9.29004 9.30004L7.00004 11.59L6.00004 10.59L3.29004 13.29C2.69913 13.8847 2.32025 14.6572 2.21182 15.4885C2.1034 16.3198 2.27144 17.1637 2.69004 17.89L0.290039 20.29L1.71004 21.71Z" fill="#BBBBBB"/>
</svg>
