<svg width="240" height="54" viewBox="0 0 240 54" fill="none" xmlns="http://www.w3.org/2000/svg">
<path d="M58.5463 38.3706C56.2544 38.3706 54.3264 37.8614 52.7619 36.8431C51.1973 35.8028 50.0955 34.3971 49.4565 32.6264L53.3569 30.3355C54.2603 32.7038 56.0341 33.8882 58.6783 33.8882C59.9564 33.8882 60.8929 33.6556 61.4879 33.1909C62.0828 32.7261 62.3804 32.1394 62.3804 31.4312C62.3804 30.612 62.0168 29.9813 61.2896 29.5386C60.5624 29.0737 59.2623 28.5756 57.3892 28.0445C56.3537 27.7345 55.4722 27.4246 54.745 27.1148C54.0398 26.8048 53.3238 26.3954 52.5966 25.8862C51.8915 25.3549 51.3516 24.691 50.977 23.8941C50.6024 23.0971 50.4151 22.1674 50.4151 21.105C50.4151 19.0022 51.1533 17.3309 52.6297 16.0914C54.1281 14.8297 55.9241 14.1988 58.0174 14.1988C59.8904 14.1988 61.5321 14.6636 62.9423 15.5933C64.3746 16.5009 65.4874 17.7736 66.2807 19.4117L62.4464 21.6364C61.5209 19.6441 60.0447 18.648 58.0174 18.648C57.0699 18.648 56.3207 18.8693 55.7698 19.312C55.2409 19.7326 54.9763 20.286 54.9763 20.9722C54.9763 21.7027 55.2739 22.3003 55.8688 22.7653C56.486 23.2079 57.6538 23.6947 59.3725 24.226C60.0777 24.4473 60.6066 24.6244 60.959 24.7573C61.3336 24.8681 61.8294 25.0562 62.4464 25.3217C63.0855 25.5652 63.5702 25.7978 63.9008 26.0191C64.2534 26.2404 64.65 26.5393 65.0908 26.9156C65.5315 27.2919 65.862 27.6793 66.0824 28.0777C66.3247 28.4761 66.523 28.9631 66.6773 29.5386C66.8536 30.092 66.9416 30.7007 66.9416 31.3646C66.9416 33.5119 66.1594 35.2163 64.595 36.4781C63.0525 37.7396 61.0362 38.3706 58.5463 38.3706ZM84.251 35.8471C82.5543 37.5294 80.483 38.3706 78.0371 38.3706C75.5911 38.3706 73.5198 37.5294 71.8231 35.8471C70.1484 34.1427 69.3109 32.062 69.3109 29.605C69.3109 27.148 70.1484 25.0783 71.8231 23.396C73.5198 21.6916 75.5911 20.8394 78.0371 20.8394C80.483 20.8394 82.5543 21.6916 84.251 23.396C85.9478 25.0783 86.7962 27.148 86.7962 29.605C86.7962 32.062 85.9478 34.1427 84.251 35.8471ZM74.8309 32.892C75.6902 33.7553 76.759 34.1869 78.0371 34.1869C79.3152 34.1869 80.3837 33.7553 81.2432 32.892C82.1027 32.0288 82.5323 30.9331 82.5323 29.605C82.5323 28.2769 82.1027 27.1811 81.2432 26.3178C80.3837 25.4546 79.3152 25.023 78.0371 25.023C76.759 25.023 75.6902 25.4546 74.8309 26.3178C73.9935 27.1811 73.5748 28.2769 73.5748 29.605C73.5748 30.9331 73.9935 32.0288 74.8309 32.892ZM98.9846 20.8394C100.791 20.8394 102.279 21.4482 103.447 22.6655C104.637 23.8829 105.232 25.5652 105.232 27.7124V37.9057H100.968V28.2437C100.968 27.1369 100.67 26.2957 100.075 25.7202C99.4802 25.1225 98.687 24.8236 97.6955 24.8236C96.5937 24.8236 95.7122 25.1668 95.0513 25.853C94.3901 26.5393 94.0595 27.5685 94.0595 28.9408V37.9057H89.7958V21.3043H94.0595V23.1637C95.0953 21.614 96.737 20.8394 98.9846 20.8394ZM121.433 21.3043H125.697V37.9057H121.433V35.9468C120.155 37.5625 118.359 38.3706 116.045 38.3706C113.841 38.3706 111.946 37.5294 110.36 35.8471C108.795 34.1427 108.013 32.062 108.013 29.605C108.013 27.148 108.795 25.0783 110.36 23.396C111.946 21.6916 113.841 20.8394 116.045 20.8394C118.359 20.8394 120.155 21.6474 121.433 23.2632V21.3043ZM113.566 32.9917C114.425 33.855 115.516 34.2866 116.838 34.2866C118.16 34.2866 119.251 33.855 120.111 32.9917C120.992 32.1062 121.433 30.9773 121.433 29.605C121.433 28.2326 120.992 27.1148 120.111 26.2514C119.251 25.366 118.16 24.9233 116.838 24.9233C115.516 24.9233 114.425 25.366 113.566 26.2514C112.706 27.1148 112.277 28.2326 112.277 29.605C112.277 30.9773 112.706 32.1062 113.566 32.9917ZM133.827 24.1597C134.224 23.0971 134.873 22.3003 135.777 21.769C136.702 21.2378 137.727 20.9722 138.851 20.9722V25.7533C137.551 25.5986 136.383 25.8641 135.347 26.5504C134.334 27.2364 133.827 28.3764 133.827 29.9702V37.9057H129.563V21.3043H133.827V24.1597ZM146.369 37.9057L139.89 14.6636H144.683L149.112 31.8959L153.938 14.6636H157.838L162.697 31.8959L167.126 14.6636H171.919L165.44 37.9057H160.251L155.888 22.5658L151.558 37.9057H146.369ZM184.957 21.3043H189.221V37.9057H184.957V35.9468C183.679 37.5625 181.883 38.3706 179.569 38.3706C177.366 38.3706 175.471 37.5294 173.884 35.8471C172.32 34.1427 171.537 32.062 171.537 29.605C171.537 27.148 172.32 25.0783 173.884 23.396C175.471 21.6916 177.366 20.8394 179.569 20.8394C181.883 20.8394 183.679 21.6474 184.957 23.2632V21.3043ZM177.09 32.9917C177.95 33.855 179.04 34.2866 180.363 34.2866C181.685 34.2866 182.775 33.855 183.635 32.9917C184.516 32.1062 184.957 30.9773 184.957 29.605C184.957 28.2326 184.516 27.1148 183.635 26.2514C182.775 25.366 181.685 24.9233 180.363 24.9233C179.04 24.9233 177.95 25.366 177.09 26.2514C176.231 27.1148 175.801 28.2326 175.801 29.605C175.801 30.9773 176.231 32.1062 177.09 32.9917ZM202.541 25.4215H198.806V32.3275C198.806 32.903 198.949 33.3237 199.235 33.5893C199.522 33.855 199.94 34.0098 200.491 34.0542C201.042 34.0763 201.725 34.0653 202.541 34.0209V37.9057C199.61 38.2377 197.538 37.9609 196.326 37.0757C195.137 36.1902 194.542 34.6076 194.542 32.3275V25.4215H191.666V21.3043H194.542V17.9507L198.806 16.6558V21.3043H202.541V25.4215ZM212.897 38.3706C210.407 38.3706 208.325 37.5294 206.65 35.8471C204.997 34.1648 204.171 32.0841 204.171 29.605C204.171 27.1259 204.997 25.0452 206.65 23.3629C208.325 21.6806 210.407 20.8394 212.897 20.8394C214.506 20.8394 215.97 21.2267 217.293 22.0014C218.616 22.7763 219.617 23.8166 220.301 25.1225L216.633 27.2808C216.301 26.5946 215.795 26.0522 215.111 25.6538C214.451 25.2554 213.702 25.0562 212.864 25.0562C211.586 25.0562 210.528 25.4878 209.691 26.3511C208.854 27.1922 208.435 28.2769 208.435 29.605C208.435 30.911 208.854 31.9956 209.691 32.8588C210.528 33.7 211.586 34.1206 212.864 34.1206C213.723 34.1206 214.483 33.9324 215.145 33.5561C215.829 33.1577 216.334 32.6154 216.665 31.9291L220.366 34.0542C219.64 35.3602 218.616 36.4115 217.293 37.2083C215.97 37.9833 214.506 38.3706 212.897 38.3706ZM231.812 20.8394C233.617 20.8394 235.105 21.4482 236.273 22.6655C237.462 23.8829 238.057 25.5652 238.057 27.7124V37.9057H233.795V28.2437C233.795 27.1369 233.496 26.2957 232.902 25.7202C232.307 25.1225 231.513 24.8236 230.523 24.8236C229.42 24.8236 228.54 25.1668 227.877 25.853C227.217 26.5393 226.887 27.5685 226.887 28.9408V37.9057H222.622V14.6636H226.887V23.1637C227.922 21.614 229.564 20.8394 231.812 20.8394Z" fill="white"/>
<path d="M11.9946 12.1023C13.9367 10.1515 16.2432 8.60604 18.7795 7.54955C21.316 6.49304 24.0358 5.95006 26.7824 5.95006V0.0533447C23.2654 0.0533447 19.7823 0.748666 16.5342 2.10245C13.2836 3.45378 10.3314 5.43409 7.84398 7.93282C5.35651 10.4316 3.38512 13.3971 2.03987 16.6624C0.692186 19.9253 0 23.4241 0 26.957H5.87014C5.87014 24.1979 6.41069 21.4658 7.46241 18.9179C8.51414 16.37 10.0526 14.0531 11.9946 12.1023Z" fill="#373B3E"/>
<path d="M14.9198 22.022C14.2741 23.5869 13.9415 25.2652 13.9415 26.9579C13.9415 27.877 13.7605 28.7884 13.4107 29.6386C13.061 30.4862 12.5473 31.26 11.8992 31.9087C11.2535 32.5599 10.483 33.0758 9.63917 33.4271C8.7929 33.7785 7.88548 33.9603 6.9707 33.9603V39.8571C8.65593 39.8571 10.3265 39.5229 11.8845 38.8743C13.4425 38.228 14.8587 37.2772 16.0499 36.0782C17.2434 34.8817 18.19 33.4592 18.8333 31.894C19.479 30.3289 19.8116 28.6508 19.8116 26.9579C19.8116 26.0391 19.9926 25.1274 20.3424 24.2775C20.6921 23.4298 21.2057 22.6558 21.854 22.0071C22.4997 21.3561 23.2701 20.8401 24.1139 20.4888C24.9602 20.1374 25.8677 19.9556 26.7824 19.9556V14.0589C25.0972 14.0589 23.4267 14.393 21.8686 15.0417C20.3106 15.6879 18.8944 16.6387 17.7033 17.8377C16.5097 19.0343 15.5631 20.4568 14.9198 22.022Z" fill="#29E9A3"/>
<path d="M27.883 26.957C27.883 29.7163 27.3424 32.4484 26.2908 34.9962C25.239 37.5442 23.7005 39.8611 21.7585 41.8119C19.8165 43.7627 17.51 45.3081 14.9737 46.3647C12.4373 47.4211 9.71743 47.9641 6.9707 47.9641V53.8609C10.4879 53.8609 13.9709 53.1655 17.219 51.8117C20.4696 50.4604 23.4218 48.4801 25.9092 45.9814C28.3966 43.4827 30.3681 40.517 31.7132 37.2517C33.061 33.9889 33.7532 30.4902 33.7532 26.957H27.883Z" fill="#373B3E"/>
</svg>
