<svg width="52" height="46" viewBox="0 0 52 46" fill="none" xmlns="http://www.w3.org/2000/svg">
<path opacity="0.9" d="M39.5135 0C37.044 -2.54156e-06 34.6299 0.731212 32.5766 2.10117C30.5233 3.47113 28.9228 5.4183 27.9778 7.69646C27.0327 9.97462 26.7855 12.4814 27.2673 14.8999C27.749 17.3184 28.9382 19.5399 30.6845 21.2836C32.4307 23.0272 34.6555 24.2146 37.0776 24.6957C39.4997 25.1767 42.0102 24.9298 44.2918 23.9862C46.5733 23.0426 48.5234 21.4446 49.8954 19.3943C51.2674 17.344 51.9997 14.9335 51.9997 12.4676C51.9997 9.16101 50.6842 5.98982 48.3426 3.65169C46.001 1.31356 42.8251 2.84012e-06 39.5135 0ZM45.1233 8.45958L37.6793 17.1481C37.5967 17.2444 37.4943 17.3218 37.3789 17.3748C37.2636 17.4279 37.1381 17.4554 37.0111 17.4554C36.9972 17.4554 36.9832 17.455 36.9693 17.4543C36.8354 17.448 36.7047 17.4112 36.5872 17.3467C36.4697 17.2822 36.3686 17.1917 36.2915 17.0822L33.4921 13.1061C33.4254 13.0117 33.3781 12.9052 33.3527 12.7926C33.3274 12.68 33.3245 12.5635 33.3443 12.4497C33.3641 12.336 33.4061 12.2273 33.468 12.1298C33.5299 12.0323 33.6105 11.9479 33.705 11.8816C33.7996 11.8152 33.9064 11.7681 34.0192 11.7429C34.132 11.7177 34.2487 11.715 34.3625 11.735C34.4764 11.7549 34.5852 11.797 34.6828 11.859C34.7803 11.9209 34.8647 12.0014 34.9311 12.096L37.079 15.1468L43.7867 7.31777C43.9383 7.14079 44.1542 7.03121 44.3867 7.01313C44.6193 6.99505 44.8495 7.06995 45.0267 7.22137C45.204 7.37278 45.3137 7.5883 45.3318 7.82051C45.3499 8.05273 45.2749 8.2826 45.1233 8.45958Z" fill="#FB7F58"/>
<g style="mix-blend-mode:multiply">
<path d="M21.6234 2.95703C15.8904 2.96322 10.394 5.24001 6.34021 9.28783C2.28637 13.3356 0.00620047 18.8239 0 24.5484C1.08117 53.1569 42.1657 53.1443 43.2469 24.5484C43.2407 18.8239 40.9605 13.3356 36.9067 9.28783C32.8528 5.24001 27.3564 2.96322 21.6234 2.95703ZM21.6234 6.55558C25.2398 6.55949 28.7716 7.64897 31.76 9.68257C34.7484 11.7162 37.0554 14.5999 38.3816 17.9594L25.2706 20.5774C22.7785 21.074 20.2126 21.074 17.7204 20.5774L4.85445 18.008C6.17379 14.6379 8.47929 11.7427 11.4704 9.69992C14.4616 7.65712 17.9996 6.5614 21.6234 6.55558ZM3.60389 24.7409L11.091 26.2361C12.1285 26.4433 13.1075 26.8761 13.9586 27.5036C14.8097 28.1311 15.5121 28.938 16.0158 29.867L17.142 31.9416C17.7105 32.9917 18.009 34.1665 18.0105 35.3602V42.1813C13.9781 41.3506 10.3514 39.1679 7.73249 35.9955C5.11359 32.8232 3.65996 28.8519 3.6129 24.7409L3.60389 24.7409ZM25.2274 42.1813V35.3674C25.2289 34.1737 25.5273 32.9989 26.0959 31.9488L27.2221 29.8742C27.7258 28.9452 28.4281 28.1383 29.2792 27.5108C30.1304 26.8833 31.1094 26.4505 32.1468 26.2433L39.643 24.7409C39.595 28.8544 38.1388 32.8276 35.5164 36.0004C32.8939 39.1731 29.2631 41.3542 25.2274 42.1813Z" fill="#ECC8C3"/>
</g>
</svg>
