<svg width="18" height="17" viewBox="0 0 18 17" fill="none" xmlns="http://www.w3.org/2000/svg">
<path d="M9.0008 14.275L4.8508 16.775C4.66747 16.8917 4.4758 16.9417 4.2758 16.925C4.0758 16.9083 3.9008 16.8417 3.7508 16.725C3.6008 16.6083 3.48414 16.4627 3.4008 16.288C3.31747 16.1127 3.3008 15.9167 3.3508 15.7L4.4508 10.975L0.775803 7.80001C0.609136 7.65001 0.505136 7.47901 0.463803 7.28701C0.421803 7.09568 0.434136 6.90835 0.500803 6.72501C0.567469 6.54168 0.667469 6.39168 0.800803 6.27501C0.934136 6.15835 1.11747 6.08335 1.3508 6.05001L6.2008 5.62501L8.0758 1.17501C8.15914 0.975013 8.28847 0.825012 8.4638 0.725012C8.63847 0.625012 8.81747 0.575012 9.0008 0.575012C9.18414 0.575012 9.36347 0.625012 9.5388 0.725012C9.71347 0.825012 9.84247 0.975013 9.9258 1.17501L11.8008 5.62501L16.6508 6.05001C16.8841 6.08335 17.0675 6.15835 17.2008 6.27501C17.3341 6.39168 17.4341 6.54168 17.5008 6.72501C17.5675 6.90835 17.5801 7.09568 17.5388 7.28701C17.4968 7.47901 17.3925 7.65001 17.2258 7.80001L13.5508 10.975L14.6508 15.7C14.7008 15.9167 14.6841 16.1127 14.6008 16.288C14.5175 16.4627 14.4008 16.6083 14.2508 16.725C14.1008 16.8417 13.9258 16.9083 13.7258 16.925C13.5258 16.9417 13.3341 16.8917 13.1508 16.775L9.0008 14.275Z" fill="#3772FF"/>
</svg>
