<svg width="28" height="28" viewBox="0 0 28 28" fill="none" xmlns="http://www.w3.org/2000/svg">
<path opacity="0.9" d="M14 0C11.2311 -2.85394e-06 8.52433 0.821084 6.22204 2.35942C3.91975 3.89776 2.12532 6.08426 1.06569 8.64242C0.00606011 11.2006 -0.271178 14.0155 0.269013 16.7313C0.809204 19.447 2.14256 21.9415 4.10049 23.8995C6.05842 25.8574 8.55301 27.1908 11.2687 27.731C13.9845 28.2712 16.7994 27.9939 19.3576 26.9343C21.9157 25.8747 24.1022 24.0803 25.6405 21.778C27.1789 19.4757 28 16.7689 28 14C28 10.287 26.525 6.72602 23.8995 4.10051C21.274 1.47501 17.713 3.18919e-06 14 0ZM20.2898 9.49934L11.9434 19.2557C11.8508 19.3639 11.7359 19.4508 11.6066 19.5103C11.4773 19.5699 11.3366 19.6008 11.1942 19.6008C11.1786 19.6008 11.1629 19.6004 11.1473 19.5996C10.9971 19.5925 10.8506 19.5512 10.7189 19.4787C10.5872 19.4063 10.4737 19.3047 10.3873 19.1818L7.2485 14.7169C7.1738 14.611 7.12071 14.4914 7.09229 14.3649C7.06386 14.2384 7.06066 14.1076 7.08283 13.9799C7.10501 13.8522 7.15215 13.7301 7.22155 13.6206C7.29095 13.5112 7.38125 13.4164 7.48729 13.3419C7.59333 13.2673 7.71302 13.2144 7.83952 13.1862C7.96603 13.158 8.09684 13.1549 8.22452 13.1773C8.35219 13.1996 8.47422 13.247 8.58359 13.3165C8.69296 13.3861 8.78757 13.4765 8.86196 13.5827L11.2703 17.0085L18.7912 8.21718C18.9612 8.01845 19.2033 7.8954 19.464 7.8751C19.7248 7.8548 19.9829 7.93891 20.1816 8.10893C20.3804 8.27896 20.5034 8.52097 20.5237 8.78172C20.544 9.04247 20.4599 9.3006 20.2898 9.49934Z" fill="#870AFF" fill-opacity="0.7"/>
</svg>
